<svg width="30" height="30" viewBox="0 0 30 30" fill="none" xmlns="http://www.w3.org/2000/svg">
<path fill-rule="evenodd" clip-rule="evenodd" d="M19.1425 2.5C19.8055 2.50014 20.4413 2.76363 20.91 3.2325L26.7675 9.09C27.2364 9.55873 27.4999 10.1945 27.5 10.8575V19.1425C27.4999 19.8055 27.2364 20.4413 26.7675 20.91L20.91 26.7675C20.4413 27.2364 19.8055 27.4999 19.1425 27.5H10.8575C10.1945 27.4999 9.55873 27.2364 9.09 26.7675L3.2325 20.91C2.76363 20.4413 2.50014 19.8055 2.5 19.1425V10.8575C2.50014 10.1945 2.76363 9.55873 3.2325 9.09L9.09 3.2325C9.55873 2.76363 10.1945 2.50014 10.8575 2.5H19.1425ZM15 18.75C14.6685 18.75 14.3505 18.8817 14.1161 19.1161C13.8817 19.3505 13.75 19.6685 13.75 20C13.75 20.3315 13.8817 20.6495 14.1161 20.8839C14.3505 21.1183 14.6685 21.25 15 21.25C15.3315 21.25 15.6495 21.1183 15.8839 20.8839C16.1183 20.6495 16.25 20.3315 16.25 20C16.25 19.6685 16.1183 19.3505 15.8839 19.1161C15.6495 18.8817 15.3315 18.75 15 18.75ZM15 7.5C14.6938 7.50004 14.3983 7.61244 14.1695 7.81589C13.9407 8.01934 13.7946 8.29969 13.7587 8.60375L13.75 8.75V16.25C13.7504 16.5686 13.8723 16.875 14.0911 17.1067C14.3098 17.3384 14.6087 17.4778 14.9267 17.4965C15.2448 17.5151 15.558 17.4117 15.8023 17.2072C16.0466 17.0027 16.2036 16.7126 16.2413 16.3962L16.25 16.25V8.75C16.25 8.41848 16.1183 8.10054 15.8839 7.86612C15.6495 7.6317 15.3315 7.5 15 7.5Z" fill="white"/>
</svg>
