<svg width="16" height="16" viewBox="0 0 16 16" fill="none" xmlns="http://www.w3.org/2000/svg">
<path d="M14 3.33333C14 4.4379 11.3137 5.33333 8 5.33333C4.68629 5.33333 2 4.4379 2 3.33333M14 3.33333C14 2.22876 11.3137 1.33333 8 1.33333C4.68629 1.33333 2 2.22876 2 3.33333M14 3.33333V6.2M2 3.33333L2 12.6667C1.99958 13.0991 2.41968 13.52 3.19733 13.8661C3.97498 14.2123 5.06828 14.4651 6.31333 14.5867M2 8C1.99904 8.37277 2.31063 8.7382 2.89962 9.05508C3.48861 9.37196 4.33155 9.62766 5.33334 9.79333M8 8V10.6667M8 10.6667H10.6667M8 10.6667L9.39333 9.27333C9.97333 8.69333 10.78 8.33333 11.6667 8.33333C12.4623 8.33333 13.2254 8.6494 13.788 9.21201C14.3506 9.77462 14.6667 10.5377 14.6667 11.3333C14.6667 12.0329 14.4465 12.7148 14.0375 13.2824C13.6284 13.8499 13.0511 14.2744 12.3874 14.4956C11.7237 14.7168 11.0072 14.7236 10.3394 14.515C9.67166 14.3064 9.08643 13.893 8.66667 13.3333" stroke="white" stroke-linecap="round" stroke-linejoin="round"/>
</svg>
