<svg width="16" height="16" viewBox="0 0 16 16" fill="none" xmlns="http://www.w3.org/2000/svg">
<g clip-path="url(#clip0_2157_9645)">
<path d="M6.66667 8.66663C6.95297 9.04939 7.31824 9.36609 7.7377 9.59526C8.15716 9.82443 8.62101 9.96071 9.09777 9.99486C9.57453 10.029 10.0531 9.96021 10.5009 9.79315C10.9487 9.6261 11.3554 9.36468 11.6933 9.02663L13.6933 7.02663C14.3005 6.39796 14.6365 5.55595 14.6289 4.68196C14.6213 3.80797 14.2708 2.97193 13.6527 2.3539C13.0347 1.73588 12.1987 1.38531 11.3247 1.37772C10.4507 1.37013 9.60867 1.70611 8.98 2.3133L7.83333 3.4533M9.33347 7.33331C9.04716 6.95056 8.68189 6.63385 8.26243 6.40468C7.84297 6.17551 7.37913 6.03923 6.90237 6.00509C6.4256 5.97094 5.94708 6.03973 5.49924 6.20679C5.0514 6.37385 4.64472 6.63526 4.3068 6.97331L2.3068 8.97331C1.69961 9.60198 1.36363 10.444 1.37122 11.318C1.37881 12.192 1.72938 13.028 2.3474 13.646C2.96543 14.2641 3.80147 14.6146 4.67546 14.6222C5.54945 14.6298 6.39146 14.2938 7.02013 13.6866L8.16013 12.5466" stroke="white" stroke-linecap="round" stroke-linejoin="round"/>
</g>
<defs>
<clipPath id="clip0_2157_9645">
<rect width="16" height="16" fill="white"/>
</clipPath>
</defs>
</svg>
