<svg width="16" height="16" viewBox="0 0 16 16" fill="none" xmlns="http://www.w3.org/2000/svg">
<path d="M6.06004 6.00006C6.21677 5.5545 6.52614 5.1788 6.93334 4.93948C7.34054 4.70017 7.8193 4.61268 8.28482 4.69253C8.75034 4.77238 9.17258 5.01441 9.47676 5.37574C9.78093 5.73708 9.94741 6.19441 9.94671 6.66673C9.94671 8.00006 7.94671 8.66673 7.94671 8.66673M7.99998 11.3333H8.00665M5.26665 13.3334C6.53903 13.9861 8.0027 14.1629 9.3939 13.8319C10.7851 13.5009 12.0123 12.6839 12.8545 11.5282C13.6966 10.3724 14.0983 8.95384 13.987 7.52814C13.8758 6.10244 13.259 4.76335 12.2479 3.75216C11.2367 2.74098 9.89757 2.1242 8.47187 2.01298C7.04617 1.90176 5.62763 2.3034 4.47186 3.14553C3.31609 3.98767 2.49911 5.21491 2.16813 6.60611C1.83715 7.99731 2.01394 9.46098 2.66665 10.7334L1.33331 14.6667L5.26665 13.3334Z" stroke="white" stroke-linecap="round" stroke-linejoin="round"/>
</svg>
