<svg width="16" height="16" viewBox="0 0 16 16" fill="none" xmlns="http://www.w3.org/2000/svg">
<g clip-path="url(#clip0_2157_9639)">
<path d="M12 5.99999H13.3333C13.6869 5.99999 14.0261 6.14047 14.2761 6.39052C14.5262 6.64057 14.6666 6.97971 14.6666 7.33333V14.6667L12 12H7.99998C7.64636 12 7.30722 11.8595 7.05717 11.6095C6.80712 11.3594 6.66665 11.0203 6.66665 10.6667V9.99999M9.33331 5.99999C9.33331 6.35362 9.19284 6.69275 8.94279 6.9428C8.69274 7.19285 8.3536 7.33333 7.99998 7.33333H3.99998L1.33331 9.99999V2.66666C1.33331 1.93333 1.93331 1.33333 2.66665 1.33333H7.99998C8.3536 1.33333 8.69274 1.4738 8.94279 1.72385C9.19284 1.9739 9.33331 2.31304 9.33331 2.66666V5.99999Z" stroke="white" stroke-linecap="round" stroke-linejoin="round"/>
</g>
<defs>
<clipPath id="clip0_2157_9639">
<rect width="16" height="16" fill="white"/>
</clipPath>
</defs>
</svg>
