<svg width="26" height="26" viewBox="0 0 26 26" fill="none" xmlns="http://www.w3.org/2000/svg">
<path d="M20.3501 5.64997L23.5001 2.49997M2.50006 23.5L5.65006 20.35M8.27506 14.575L10.9001 11.95M11.4251 17.725L14.0501 15.1M7.0151 21.715C7.24921 21.9499 7.5274 22.1363 7.83371 22.2635C8.14002 22.3907 8.46843 22.4562 8.8001 22.4562C9.13176 22.4562 9.46017 22.3907 9.76648 22.2635C10.0728 22.1363 10.351 21.9499 10.5851 21.715L13.0001 19.3L6.7001 13L4.2851 15.415C4.05016 15.6491 3.86376 15.9273 3.73657 16.2336C3.60938 16.5399 3.54391 16.8683 3.54391 17.2C3.54391 17.5316 3.60938 17.86 3.73657 18.1664C3.86376 18.4727 4.05016 18.7509 4.2851 18.985L7.0151 21.715ZM13.0001 6.7L19.3001 13L21.7151 10.585C21.95 10.3509 22.1364 10.0727 22.2636 9.76639C22.3908 9.46008 22.4562 9.13167 22.4562 8.8C22.4562 8.46834 22.3908 8.13993 22.2636 7.83362C22.1364 7.52731 21.95 7.24912 21.7151 7.015L18.9851 4.285C18.7509 4.05007 18.4728 3.86367 18.1664 3.73648C17.8601 3.60929 17.5317 3.54382 17.2001 3.54382C16.8684 3.54382 16.54 3.60929 16.2337 3.73648C15.9274 3.86367 15.6492 4.05007 15.4151 4.285L13.0001 6.7Z" stroke="white" stroke-width="1.89" stroke-linecap="round" stroke-linejoin="round"/>
</svg>
